<svg version="1" xmlns="http://www.w3.org/2000/svg" width="933.333" height="933.333" viewBox="0 0 700.000000 700.000000"><path d="M552.1 42.2c-1.8.5-4.3 1.5-5.5 2.3-3.7 2.3-32.3 11.7-57.1 18.6-29.1 8.2-85.5 21.5-99.5 23.5-1.9.3-4.1.7-4.8.9-2 .7-14.7 1.7-22.7 1.8-8.9.1-27.9-1.2-39.5-2.8-3-.4-7.1-.9-9-1.1-1.9-.3-6.4-.9-10-1.4-3.6-.5-9-1.2-12-1.5-3-.4-6.8-.9-8.5-1.1-8.1-1.2-51.7-1.1-61.5.2-46.6 5.8-83.8 19.1-123 43.8-3.6 2.2-6.7 4.3-7 4.6-.3.3-2.7 2-5.5 3.9-11.3 7.8-19.4 14.9-38.8 33.9-17 16.6-22 22.3-27.8 31.1-2.7 4-6.5 9.1-8.4 11.2-5.6 6.2-7.8 11.5-8.2 19.9-.4 7.3-.2 8.2 7.7 31 10.8 30.8 13.8 39.7 15.5 44.5.7 2.2 2.9 8.5 4.8 14C38.9 341 49.2 370.8 51 376c1 3 3.4 10 5.3 15.5 10.9 31.1 18.4 52.7 23.2 66.5 2.9 8.5 8.6 24.7 12.5 36 3.9 11.3 9.6 27.5 12.5 36 12.6 36.4 14.7 42.5 21.5 62 4 11.3 7.6 21.6 8 23 .5 1.4 4 11.7 8 23 3.9 11.3 8.4 24.3 10.1 29 1.6 4.7 4.4 12.8 6.2 18l3.4 9.5 22.6.3c12.5.1 22.7.1 22.7 0 0-.2-.7-2.6-1.6-5.3-.9-2.8-2-6.4-2.4-8-.4-1.7-5.8-19.4-12-39.5-13.5-44.2-15-49.2-15-50.6 0-1.7 32.5-24 52.5-36.1 22.6-13.6 41.8-23.7 67.8-35.7 4.3-2 8-3.6 8.3-3.6.2 0 2.3-.9 4.7-1.9 6.1-2.8 19.3-7.6 26.2-9.6 3.3-.9 7.1-2.1 8.5-2.6 2.4-.8 16.3-4.2 22.5-5.4 12.2-2.4 31.7-4.1 45-3.9 18.4.2 20.1.4 46.5 5.4 8.5 1.7 17.5 3.2 20 3.5 2.5.3 6.1.8 8 1 24.8 3.5 67.9 1.5 98-4.5 3-.6 6.6-1.4 8-1.6 13.6-2.7 38.8-10.6 51.6-16.2 25.5-11.2 42.7-24.9 49.9-39.6 5.7-11.5 6.4-20 2.7-31.1-6-17.6-19.2-59.3-19.2-60.3 0-.7-.4-2-1-3-.5-.9-4.3-12.5-8.5-25.7s-8-25.1-8.5-26.5c-.5-1.4-4.8-14.7-9.5-29.5-4.8-14.9-9.5-29.5-10.5-32.5-.9-3-3.9-11.9-6.4-19.7-2.6-7.8-4.9-15-5.1-16-.2-1-1.2-4.3-2.3-7.3-1.1-3-5.4-16.3-9.7-29.5C593.2 90 581.1 54.9 578 50.9c-6.1-7.6-17-11.3-25.9-8.7zm-91.8 100.9c3.5 1.6 5.2 5.4 5.2 11.3-.1 6.4-1.7 14.2-8.6 42-1.5 6.1-9.5 32.3-12.4 40.6-1.4 4.1-3.2 9.3-3.9 11.5-1.4 4.1-13.2 37-19.1 53-5.8 16-17.6 51.5-19.1 58-.1.5-2 8.2-4.2 17s-4.8 19.5-5.7 23.7c-1.7 8-4.3 12.8-8.5 16-2.8 2-22.9 7.8-27.3 7.8-3.5 0-9.6-2.5-11.8-4.9-1.7-1.8-26.1-38.1-36.1-53.6-2.5-3.9-13-20.7-23.3-37.5-20.5-33.2-30.8-49.4-46.2-72.6-10.3-15.6-11.8-19.3-9.8-24.2 2-4.6 4.1-6 13.3-8.7 4.8-1.4 13.9-4.4 20.2-6.7 16-5.6 18.6-6 23.5-3.9 4 1.8 6 4.2 12.2 14.6 4.9 8.3 16.7 32 23.8 48 10.2 22.7 28.3 58.1 29.2 57.1.2-.2.6-2 .8-4 1.5-11.2 10.3-43.6 14.5-53.1 1.5-3.4 13.9-36.4 18.7-49.5 7.7-21.6 12.9-41.6 15.7-60.8 1-7.4 6.9-13.3 14.8-14.7 5.7-1 6.6-1.2 11.3-1.9 2.2-.4 4.7-.9 5.5-1.1.8-.3 3.1-.7 5-1 1.9-.3 5.8-1.2 8.5-1.9 6.3-1.8 10.7-1.9 13.8-.5z"/></svg>