<?xml version="1.0" encoding="UTF-8"?>
<svg width="71px" height="77px" viewBox="0 0 71 77" version="1.1" xmlns="http://www.w3.org/2000/svg" xmlns:xlink="http://www.w3.org/1999/xlink">
    <!-- Generator: Sketch 55.1 (78136) - https://sketchapp.com -->
    <title>voterly-brandmark-full-olive-transparent-v</title>
    <desc>Created with Sketch.</desc>
    <g id="Home-/-About-/-Footer-Pages" stroke="none" stroke-width="1" fill="none" fill-rule="evenodd">
        <g id="Coming-Soon-HiFi-Desktop" transform="translate(-684.000000, -948.000000)" fill="#484848" fill-rule="nonzero">
            <g id="Highlights" transform="translate(157.000000, 948.000000)">
                <g id="voterly-brandmark-full-olive-transparent-v" transform="translate(527.000000, 0.000000)">
                    <path d="M29.6537483,0.000198169344 C29.5965261,-0.00102342286 29.5381076,0.00338413286 29.4796647,0.0139379392 C29.0120238,0.0983611377 28.7018175,0.543126962 28.7870895,1.00702549 L30.9657597,12.8277237 C31.0200037,13.124492 31.3030148,13.3308545 31.6078748,13.2899059 C31.9230856,13.2481234 32.1446023,12.9612054 32.1023935,12.6490873 L30.4876216,0.739675288 L30.4812744,0.69970329 C30.4067023,0.294544455 30.0542311,0.00870212962 29.6537483,0.000169162089 L29.6537483,0.000198169344 Z M43.3617085,5.9087343 C42.8863046,5.88656792 42.4821112,6.25121329 42.4597007,6.72192852 L42.1392657,13.546127 C42.1297449,13.7849002 42.3017535,14.0011783 42.5454853,14.0395404 C42.808161,14.0804721 43.0545782,13.9024014 43.0967869,13.6423102 L44.1741478,6.89570615 L44.1829362,6.80201997 C44.2062304,6.33130474 43.8379669,5.93105296 43.3617085,5.90886241 L43.3617085,5.9087343 Z M16.801193,9.3975819 C16.5807212,9.38660048 16.3562311,9.45799676 16.1792668,9.61618541 C15.8253138,9.93171182 15.7988021,10.4732289 16.1174526,10.822863 L21.86507,17.118646 C21.9994106,17.2644679 22.2266397,17.2921433 22.3911293,17.1736099 C22.5685331,17.0465485 22.6069091,16.8008909 22.4794284,16.6252278 L17.4573427,9.74978315 L17.3980478,9.6773327 C17.2382917,9.50251564 17.0218064,9.40850796 16.8013395,9.39750938 L16.801193,9.3975819 Z M61.1631129,15.2198214 C60.8272493,15.2198214 60.4989779,15.3233991 60.2182128,15.5058813 L60.2182128,15.5046023 C60.2084479,15.5113707 59.994792,15.6067393 59.7098035,15.7082164 C58.6806568,16.0834252 56.6187259,16.6893868 54.4933964,17.233442 C52.3679204,17.7800595 50.1270234,18.2773406 48.7394317,18.4726078 C48.275233,18.5382584 47.7989258,18.5675437 47.3063357,18.5675437 C46.1953835,18.5683752 45.0020401,18.4177913 43.7411724,18.2515096 C42.4898254,18.0886339 41.1725166,17.9127049 39.7861456,17.9067342 L39.7861456,17.905455 L39.7268483,17.905455 C35.9873816,17.905455 32.4229506,18.9524477 29.3872888,20.7723387 C27.956463,21.6290438 26.6355412,22.6642886 25.4639979,23.860161 C25.446177,23.8794992 25.3779692,23.9437986 25.2924287,24.0250431 C24.9823933,24.3235036 24.4281134,24.8448365 23.9148217,25.4340947 C23.6556125,25.7325552 23.4032876,26.0475981 23.1793541,26.413428 C23.1122205,26.5208757 23.0509458,26.6366388 22.9913799,26.7594362 C22.2765896,27.3145867 21.9532983,28.2711251 22.2685091,29.1690688 L38.7694735,76.2067502 C38.9786864,76.8019791 39.6276369,77.1337979 40.241678,76.9487558 C40.8720752,76.7602086 41.2276395,76.1018648 41.0364428,75.4784989 L35.43774,57.4420294 L25.470223,28.1930472 C26.4661447,29.3778486 26.5996797,29.9449646 27.0004798,30.7101518 C29.6057539,35.6839291 34.9652167,52.8339852 35.0011027,52.5804135 C37.2079935,51.0418445 39.8928271,49.795717 42.3267273,48.6668513 C45.1016664,47.3791709 47.8568317,46.5736636 50.6805953,46.5745096 C51.7373035,46.5745096 52.8074628,46.6861392 53.9064285,46.9317582 C55.3885932,47.2626343 56.9076691,47.4026909 58.3948627,47.4026909 C61.413436,47.4002737 64.2994508,46.8319732 66.5531887,45.9723915 C67.6813759,45.535784 68.6535445,45.036134 69.4457948,44.4059514 C69.8411022,44.0870167 70.1963247,43.7334907 70.4865618,43.2891963 C70.7742112,42.8508725 71,42.2890261 71,41.6503105 C71,41.4755418 70.9711936,41.297824 70.9167299,41.1306697 C70.9167299,41.1298382 68.9212002,34.9480151 66.9087285,28.7653604 L66.9087285,28.7640792 C65.9021143,25.6723893 64.8912767,22.5806993 64.1232921,20.2572182 C63.7383355,19.0957435 63.4143119,18.127288 63.1809309,17.4415807 C63.0630198,17.0979172 62.9689838,16.8275454 62.8958203,16.6271295 C62.8587137,16.5256524 62.8296144,16.4446472 62.7961696,16.3610604 C62.7766398,16.3167252 62.7611136,16.2767315 62.7242755,16.1974208 C62.6998633,16.1539365 62.680187,16.1076289 62.6069503,15.9950565 C62.5656936,15.9362226 62.5191883,15.8604194 62.384921,15.7239837 C62.3143696,15.6549271 62.2217252,15.5674461 62.0468359,15.4616856 C61.8744855,15.3627709 61.5939645,15.2248776 61.1625026,15.2205967 L61.1631129,15.2198214 Z M0.816059186,19.0371762 C0.480659441,19.0548465 0.17235728,19.2667203 0.051565524,19.5992885 C-0.110343766,20.0418667 0.121826388,20.5315816 0.568787622,20.691049 L14.7750016,25.7675604 C15.0824493,25.8767244 15.4243671,25.7259108 15.5457936,25.424042 C15.6706695,25.1153323 15.5194601,24.7657223 15.2077085,24.6420547 L1.18068038,19.0970762 L1.15418822,19.0870829 C1.04244608,19.0470022 0.927891651,19.0312271 0.816103129,19.0371155 L0.816059186,19.0371762 Z M54.0030033,22.2212059 C54.3379636,22.2405924 54.5549152,22.4451298 54.6236845,22.7920687 C54.6623046,22.9898982 54.6667477,23.1648361 54.6261257,23.4228798 C53.4166946,29.7873133 50.7179704,34.0407438 49.4890584,40.3077612 C49.3751508,40.9672412 49.0225161,41.3450607 48.4684803,41.4932152 C48.0167562,41.6145864 47.7889901,41.6741963 47.3343609,41.7917724 C46.7803252,41.9360835 46.3127088,41.7398736 45.9681056,41.2371537 C42.468123,36.2145475 41.8087484,34.5650016 38.2865506,29.4200814 C38.1591431,29.2394387 38.0599318,29.0533089 38.0203596,28.8554552 C37.9286672,28.392862 38.1997163,28.0246874 38.7470143,27.8861053 C39.6108901,27.6672455 40.4693221,27.3627902 41.2512217,27.0741438 C41.8313297,26.8581365 42.3160835,27.0348874 42.6452093,27.6150325 C44.6915164,31.1292614 44.6186215,31.9876344 46.6580931,35.468505 C47.2044146,31.3062057 49.5624171,28.124835 50.1021717,23.9299024 C50.1784356,23.2436633 50.5475242,22.8406075 51.1517759,22.7469382 C51.9307216,22.6265098 52.7944999,22.4845918 53.629374,22.2647651 C53.7659605,22.2286874 53.8911464,22.2145777 54.0027836,22.2210439 L54.0030033,22.2212059 Z M17.128317,33.2538736 C17.0521532,33.2490391 16.97389,33.2587082 16.8974553,33.2851048 L7.39547972,36.5779117 L7.3513253,36.595316 C6.91124588,36.7743875 6.7028386,37.2737957 6.8845633,37.7095572 C7.06541893,38.1453187 7.56852099,38.3520679 8.00860041,38.1729965 L17.315034,34.3742547 C17.6009501,34.256652 17.7489127,33.936922 17.6455513,33.6435861 C17.5648127,33.4165367 17.3568033,33.2685223 17.1283292,33.2538495 L17.128317,33.2538736 Z M18.7430889,43.0360869 C18.6684046,43.0445474 18.5943866,43.068285 18.5248435,43.1072998 L12.6043874,46.4262132 L12.5438329,46.4636809 C12.1502587,46.7289039 12.0480691,47.2602685 12.3167551,47.6491349 C12.5854606,48.0388474 13.121236,48.1400343 13.5139557,47.8739895 L19.1365825,44.0791153 C19.3811687,43.9119852 19.4621929,43.583478 19.3131977,43.3233796 C19.1949961,43.1167996 18.9670321,43.010488 18.7429766,43.0360628 L18.7430889,43.0360869 Z" id="Shape"></path>
                </g>
            </g>
        </g>
    </g>
</svg>